<?xml version="1.0" encoding="UTF-8"?>
<svg id="Warstwa_2" data-name="Warstwa 2" xmlns="http://www.w3.org/2000/svg" viewBox="0 0 330.48 312.12">
  <g id="_Ńëîé_13" data-name="Ńëîé 13">
    <g>
      <polygon points="293.76 165.24 293.76 146.88 312.12 146.88 312.12 165.24 312.12 183.6 312.12 201.96 293.76 201.96 293.76 183.6 293.76 165.24" style="fill: #ad0000;"/>
      <polygon points="257.04 201.96 257.04 183.6 275.4 183.6 275.4 165.24 275.4 146.88 293.76 146.88 293.76 165.24 293.76 183.6 293.76 201.96 275.4 201.96 257.04 201.96" style="fill: #ff4e00;"/>
      <polygon points="275.4 201.96 293.76 201.96 293.76 220.32 275.4 220.32 257.04 220.32 257.04 201.96 275.4 201.96" style="fill: #ad0000;"/>
      <rect x="238.68" y="201.96" width="18.36" height="18.36" style="fill: #ff4e00;"/>
      <rect x="238.68" y="220.32" width="18.36" height="18.36" style="fill: #ad0000;"/>
      <polygon points="201.96 238.68 183.6 238.68 165.24 238.68 165.24 220.32 183.6 220.32 201.96 220.32 220.32 220.32 238.68 220.32 238.68 238.68 220.32 238.68 201.96 238.68" style="fill: #ff4e00;"/>
      <polygon points="165.24 257.04 165.24 275.4 146.88 275.4 128.52 275.4 128.52 257.04 146.88 257.04 165.24 257.04" style="fill: #ad0000;"/>
      <polygon points="146.88 238.68 165.24 238.68 165.24 257.04 146.88 257.04 128.52 257.04 128.52 238.68 146.88 238.68" style="fill: #ff4e00;"/>
      <polygon points="110.16 238.68 128.52 238.68 128.52 257.04 110.16 257.04 91.8 257.04 73.44 257.04 73.44 238.68 91.8 238.68 110.16 238.68" style="fill: #ad0000;"/>
      <rect x="110.16" y="275.4" width="18.36" height="18.36" style="fill: #840000;"/>
      <rect x="36.72" y="238.68" width="18.36" height="18.36" style="fill: #ad0000;"/>
      <rect x="293.76" y="220.32" width="18.36" height="18.36" style="fill: #840000;"/>
      <polygon points="91.8 220.32 110.16 220.32 128.52 220.32 128.52 238.68 110.16 238.68 91.8 238.68 73.44 238.68 73.44 220.32 91.8 220.32" style="fill: #ff4e00;"/>
      <rect x="55.08" y="201.96" width="18.36" height="18.36" style="fill: #ff4e00;"/>
      <rect x="55.08" y="220.32" width="18.36" height="18.36" style="fill: #ad0000;"/>
      <polygon points="55.08 201.96 55.08 220.32 36.72 220.32 18.36 220.32 18.36 201.96 36.72 201.96 55.08 201.96" style="fill: #ad0000;"/>
      <rect x="275.4" y="128.52" width="18.36" height="18.36" style="fill: #ad0000;"/>
      <rect x="257.04" y="110.16" width="18.36" height="18.36" style="fill: #ad0000;"/>
      <rect x="257.04" y="128.52" width="18.36" height="18.36" style="fill: #ff4e00;"/>
      <rect x="275.4" y="55.08" width="18.36" height="18.36" style="fill: #ad0000;"/>
      <polygon points="238.68 55.08 238.68 36.72 257.04 36.72 275.4 36.72 275.4 55.08 257.04 55.08 238.68 55.08" style="fill: #ad0000;"/>
      <rect x="220.32" y="55.08" width="18.36" height="18.36" style="fill: #ad0000;"/>
      <polygon points="238.68 73.44 238.68 55.08 257.04 55.08 275.4 55.08 275.4 73.44 257.04 73.44 238.68 73.44" style="fill: #ffa300;"/>
      <polygon points="91.8 91.8 110.16 91.8 110.16 110.16 91.8 110.16 73.44 110.16 55.08 110.16 55.08 91.8 73.44 91.8 73.44 73.44 91.8 73.44 91.8 91.8" style="fill: #ad0000;"/>
      <rect x="73.44" y="36.72" width="18.36" height="18.36" style="fill: #ad0000;"/>
      <rect x="55.08" y="55.08" width="18.36" height="18.36" style="fill: #ad0000;"/>
      <rect x="73.44" y="55.08" width="18.36" height="18.36" style="fill: #ffa300;"/>
      <rect x="91.8" y="55.08" width="18.36" height="18.36" style="fill: #ad0000;"/>
      <rect x="183.6" y="293.76" width="18.36" height="18.36" style="fill: #ad0000;"/>
      <polygon points="183.6 257.04 165.24 257.04 165.24 238.68 183.6 238.68 201.96 238.68 220.32 238.68 238.68 238.68 238.68 257.04 220.32 257.04 201.96 257.04 201.96 275.4 183.6 275.4 183.6 257.04" style="fill: #ad0000;"/>
      <rect x="165.24" y="275.4" width="18.36" height="18.36" style="fill: #ad0000;"/>
      <rect x="183.6" y="275.4" width="18.36" height="18.36" style="fill: #ffa300;"/>
      <rect x="201.96" y="275.4" width="18.36" height="18.36" style="fill: #ad0000;"/>
      <polygon points="238.68 128.52 220.32 128.52 220.32 110.16 238.68 110.16 257.04 110.16 257.04 128.52 238.68 128.52" style="fill: #ff4e00;"/>
      <polygon points="220.32 110.16 220.32 91.8 238.68 91.8 238.68 73.44 257.04 73.44 275.4 73.44 275.4 91.8 257.04 91.8 257.04 110.16 238.68 110.16 220.32 110.16" style="fill: #ad0000;"/>
      <rect x="201.96" y="73.44" width="18.36" height="18.36" style="fill: #ad0000;"/>
      <rect x="201.96" y="91.8" width="18.36" height="18.36" style="fill: #ff4e00;"/>
      <polygon points="183.6 91.8 165.24 91.8 146.88 91.8 128.52 91.8 128.52 73.44 146.88 73.44 165.24 73.44 183.6 73.44 201.96 73.44 201.96 91.8 183.6 91.8" style="fill: #ff4e00;"/>
      <polygon points="165.24 73.44 146.88 73.44 128.52 73.44 128.52 55.08 146.88 55.08 165.24 55.08 183.6 55.08 201.96 55.08 201.96 73.44 183.6 73.44 165.24 73.44" style="fill: #ad0000;"/>
      <rect x="146.88" y="18.36" width="18.36" height="18.36" style="fill: #ad0000;"/>
      <rect x="183.6" width="18.36" height="18.36" style="fill: #840000;"/>
      <rect x="312.12" y="110.16" width="18.36" height="18.36" style="fill: #840000;"/>
      <rect y="73.44" width="18.36" height="18.36" style="fill: #840000;"/>
      <rect x="110.16" y="73.44" width="18.36" height="18.36" style="fill: #ad0000;"/>
      <rect x="110.16" y="91.8" width="18.36" height="18.36" style="fill: #ff4e00;"/>
      <polygon points="91.8 110.16 110.16 110.16 110.16 128.52 91.8 128.52 73.44 128.52 55.08 128.52 55.08 110.16 73.44 110.16 91.8 110.16" style="fill: #ff4e00;"/>
      <rect x="36.72" y="110.16" width="18.36" height="18.36" style="fill: #ad0000;"/>
      <rect x="36.72" y="128.52" width="18.36" height="18.36" style="fill: #ff4e00;"/>
      <path d="m55.08,146.88h-18.36v36.72h18.36v18.36h18.36v18.36h55.08v18.36h36.72v-18.36h73.44v-18.36h18.36v-18.36h18.36v-36.72h-18.36v-18.36h-36.72v-18.36h-18.36v-18.36h-73.44v18.36h-18.36v18.36h-55.08v18.36Zm18.36,36.72v-18.36h18.36v-18.36h36.72v-18.36h18.36v-18.36h36.72v18.36h18.36v18.36h18.36v18.36h18.36v18.36h-18.36v-18.36h-18.36v18.36h-55.08v18.36h-36.72v-18.36h-36.72Z" style="fill: #ffa300;"/>
      <rect x="18.36" y="128.52" width="18.36" height="18.36" style="fill: #ad0000;"/>
      <polygon points="18.36 165.24 18.36 183.6 18.36 201.96 0 201.96 0 183.6 0 165.24 0 146.88 18.36 146.88 18.36 165.24" style="fill: #ad0000;"/>
      <rect x="220.32" y="165.24" width="18.36" height="18.36" style="fill: #ffc536;"/>
      <polygon points="18.36 165.24 18.36 146.88 36.72 146.88 36.72 165.24 36.72 183.6 55.08 183.6 55.08 201.96 36.72 201.96 18.36 201.96 18.36 183.6 18.36 165.24" style="fill: #ff4e00;"/>
      <polygon points="91.8 165.24 91.8 146.88 110.16 146.88 128.52 146.88 128.52 128.52 146.88 128.52 146.88 110.16 165.24 110.16 183.6 110.16 183.6 128.52 201.96 128.52 201.96 146.88 220.32 146.88 220.32 165.24 201.96 165.24 201.96 183.6 183.6 183.6 165.24 183.6 146.88 183.6 146.88 201.96 128.52 201.96 110.16 201.96 110.16 183.6 91.8 183.6 73.44 183.6 73.44 165.24 91.8 165.24" style="fill: #ffc536;"/>
    </g>
  </g>
</svg>