<?xml version="1.0" encoding="UTF-8"?>
<svg id="Warstwa_2" data-name="Warstwa 2" xmlns="http://www.w3.org/2000/svg" viewBox="0 0 55.08 385.57">
  <g id="_Ńëîé_18" data-name="Ńëîé 18">
    <g>
      <polygon points="36.72 183.6 36.72 165.24 18.36 165.24 18.36 183.6 18.36 201.96 36.72 201.96 36.72 183.6" style="fill: #ff7f00;"/>
      <rect x="36.72" y="201.96" width="18.36" height="18.36" style="fill: #7c0000;"/>
      <rect x="18.36" y="146.88" width="18.36" height="18.36" style="fill: #aa1515;"/>
      <rect x="18.36" y="128.52" width="18.36" height="18.36" style="fill: #ff4e00;"/>
      <rect x="18.36" y="73.44" width="18.36" height="18.36" style="fill: #ffb32c;"/>
      <polygon points="36.72 146.88 36.72 165.24 55.08 165.24 55.08 146.88 55.08 128.52 36.72 128.52 36.72 146.88" style="fill: #ff7f00;"/>
      <rect x="36.72" y="110.16" width="18.36" height="18.36" style="fill: #c12900;"/>
      <rect x="36.72" y="91.8" width="18.36" height="18.36" style="fill: #ff4e00;"/>
      <rect x="18.36" width="18.36" height="18.36" style="fill: #ffe631;"/>
      <rect x="36.72" y="18.36" width="18.36" height="18.36" style="fill: #ffe631;"/>
      <polygon points="36.72 36.72 36.72 18.36 18.36 18.36 0 18.36 0 36.72 18.36 36.72 36.72 36.72" style="fill: #ffb32c;"/>
      <rect x="36.72" y="36.72" width="18.36" height="18.36" style="fill: #ffb32c;"/>
      <polygon points="36.72 73.44 36.72 91.8 55.08 91.8 55.08 73.44 55.08 55.08 36.72 55.08 36.72 73.44" style="fill: #ff7f00;"/>
      <polygon points="36.72 55.08 36.72 36.72 18.36 36.72 18.36 55.08 18.36 73.44 36.72 73.44 36.72 55.08" style="fill: #ffe631;"/>
      <rect x="36.72" y="183.6" width="18.36" height="18.36" style="fill: #c12900;"/>
      <rect x="36.72" y="165.24" width="18.36" height="18.36" style="fill: #6b0000;"/>
      <polygon points="18.36 220.32 18.36 201.96 18.36 183.6 0 183.6 0 201.96 0 220.32 18.36 220.32" style="fill: #7c0000;"/>
      <rect y="91.8" width="18.36" height="18.36" style="fill: #c12900;"/>
      <rect y="73.44" width="18.36" height="18.36" style="fill: #ff4e00;"/>
      <polygon points="18.36 55.08 18.36 36.72 0 36.72 0 55.08 0 73.44 18.36 73.44 18.36 55.08" style="fill: #ff7f00;"/>
      <polygon points="18.36 128.52 36.72 128.52 36.72 110.16 36.72 91.8 18.36 91.8 18.36 110.16 0 110.16 0 128.52 0 146.88 18.36 146.88 18.36 128.52" style="fill: #ff7f00;"/>
      <rect y="165.24" width="18.36" height="18.36" style="fill: #c12900;"/>
      <rect y="146.88" width="18.36" height="18.36" style="fill: #6b0000;"/>
      <rect x="18.36" y="220.32" width="18.36" height="18.36" style="fill: #c12900;"/>
      <polygon points="36.72 238.68 36.72 257.04 55.08 257.04 55.08 238.68 55.08 220.32 36.72 220.32 36.72 238.68" style="fill: #6b0000;"/>
      <rect x="18.36" y="257.04" width="18.36" height="18.36" style="fill: #c12900;"/>
      <rect x="18.36" y="275.4" width="18.36" height="18.36" style="fill: #6b0000;"/>
      <rect x="36.72" y="312.12" width="18.36" height="18.36" style="fill: #6b0000;"/>
      <rect x="18.36" y="330.48" width="18.36" height="18.36" style="fill: #6b0000;"/>
      <rect x="18.36" y="367.21" width="18.36" height="18.36" style="fill: #6b0000;"/>
    </g>
  </g>
</svg>