<?xml version="1.0" encoding="UTF-8"?>
<svg id="Warstwa_2" data-name="Warstwa 2" xmlns="http://www.w3.org/2000/svg" viewBox="0 0 284.08 265.14">
  <g id="_Ńëîé_10" data-name="Ńëîé 10">
    <g>
      <rect x="94.69" y="18.96" width="94.71" height="94.71" style="fill: #910042;"/>
      <rect x="75.76" y="37.91" width="18.93" height="94.68" style="fill: #31f5ff;"/>
      <rect x="75.76" y="18.96" width="18.93" height="18.95" style="fill: #31f5ff;"/>
      <rect x="189.39" y="18.96" width="18.93" height="18.95" style="fill: #00a6c1;"/>
      <rect x="94.69" width="94.71" height="18.96" style="fill: #31f5ff;"/>
      <rect x="94.69" y="18.96" width="18.94" height="75.75" style="fill: #f24141;"/>
      <rect x="189.39" y="37.91" width="18.93" height="94.68" style="fill: #00a6c1;"/>
      <rect x="132.57" y="151.52" width="18.95" height="18.94" style="fill: #b70000;"/>
      <rect x="75.76" y="151.52" width="18.93" height="18.94" style="fill: #b70000;"/>
      <rect x="189.39" y="151.52" width="18.93" height="18.94" style="fill: #b70000;"/>
      <rect x="189.39" y="170.46" width="18.93" height="18.94" style="fill: #680034;"/>
      <rect x="113.63" y="170.46" width="18.94" height="18.94" style="fill: #680034;"/>
      <rect x="151.51" y="170.46" width="18.93" height="18.94" style="fill: #680034;"/>
      <rect x="75.76" y="170.46" width="18.93" height="18.94" style="fill: #680034;"/>
      <rect x="56.82" y="170.46" width="18.94" height="18.94" style="fill: #680034;"/>
      <rect x="37.87" y="151.52" width="18.95" height="18.94" style="fill: #680034;"/>
      <rect x="37.87" y="170.46" width="18.95" height="18.94" style="fill: #910042;"/>
      <rect x="37.87" y="189.4" width="18.95" height="18.94" style="fill: #910042;"/>
      <rect x="227.27" y="151.52" width="18.92" height="18.94" style="fill: #680034;"/>
      <rect x="227.27" y="170.46" width="18.92" height="18.94" style="fill: #910042;"/>
      <rect x="227.27" y="189.4" width="18.92" height="18.94" style="fill: #910042;"/>
      <rect x="56.82" y="151.52" width="18.94" height="18.94" style="fill: #e8007a;"/>
      <rect x="56.82" y="189.4" width="18.94" height="18.94" style="fill: #e8007a;"/>
      <rect x="18.94" y="170.46" width="18.93" height="18.94" style="fill: #e8007a;"/>
      <rect x="246.19" y="170.46" width="18.94" height="18.94" style="fill: #e8007a;"/>
      <rect y="189.4" width="18.94" height="18.94" style="fill: #ff71b5;"/>
      <rect x="265.13" y="189.4" width="18.95" height="18.94" style="fill: #ff71b5;"/>
      <rect x="37.87" y="208.34" width="18.95" height="18.94" style="fill: #e8007a;"/>
      <rect x="37.87" y="227.28" width="18.95" height="18.93" style="fill: #ff71b5;"/>
      <rect x="208.32" y="170.46" width="18.95" height="18.94" style="fill: #680034;"/>
      <rect x="208.32" y="189.4" width="18.95" height="18.94" style="fill: #e8007a;"/>
      <rect x="227.27" y="208.34" width="18.92" height="18.94" style="fill: #e8007a;"/>
      <rect x="227.27" y="227.28" width="18.92" height="18.93" style="fill: #ff71b5;"/>
      <rect x="151.51" y="189.4" width="18.93" height="18.94" style="fill: #e8007a;"/>
      <rect x="113.63" y="189.4" width="18.94" height="18.94" style="fill: #e8007a;"/>
      <rect x="132.57" y="170.46" width="18.95" height="18.94" style="fill: #680034;"/>
      <rect x="132.57" y="189.4" width="18.95" height="18.94" style="fill: #910042;"/>
      <rect x="132.57" y="208.34" width="18.95" height="18.94" style="fill: #910042;"/>
      <rect x="151.51" y="208.34" width="18.93" height="18.94" style="fill: #e8007a;"/>
      <rect x="170.44" y="208.34" width="18.95" height="18.94" style="fill: #e8007a;"/>
      <rect x="170.44" y="227.28" width="18.95" height="18.93" style="fill: #e8007a;"/>
      <rect x="170.44" y="246.21" width="18.95" height="18.93" style="fill: #ff71b5;"/>
      <rect x="113.63" y="208.34" width="18.94" height="18.94" style="fill: #e8007a;"/>
      <rect x="94.69" y="208.34" width="18.94" height="18.94" style="fill: #e8007a;"/>
      <rect x="94.69" y="227.28" width="18.94" height="18.93" style="fill: #e8007a;"/>
      <rect x="94.69" y="246.21" width="18.94" height="18.93" style="fill: #ff71b5;"/>
      <rect x="37.87" y="132.59" width="208.32" height="18.93" style="fill: #bcbcbc;"/>
      <rect x="94.69" y="94.71" width="94.71" height="18.96" style="fill: #910042;"/>
      <rect x="94.69" y="18.96" width="56.83" height="18.95" style="fill: #ff8f8f;"/>
      <rect x="170.44" y="18.96" width="18.95" height="18.95" style="fill: #f24141;"/>
      <rect x="113.63" y="75.76" width="56.81" height="18.95" style="fill: #f2e219;"/>
      <rect x="113.63" y="94.71" width="56.81" height="18.96" style="fill: #efa21b;"/>
      <rect x="113.63" y="37.91" width="56.81" height="18.93" style="fill: #f2e219;"/>
      <rect x="132.57" y="56.84" width="18.95" height="18.92" style="fill: #f2e219;"/>
      <rect x="132.57" y="94.71" width="18.95" height="18.96" style="fill: #910042;"/>
      <rect x="132.57" y="75.76" width="18.95" height="18.95" style="fill: #efa21b;"/>
      <rect x="113.63" y="56.84" width="18.94" height="18.92" style="fill: #910042;"/>
      <rect x="151.51" y="56.84" width="18.93" height="18.92" style="fill: #910042;"/>
      <rect x="56.82" y="113.67" width="170.45" height="18.92" style="fill: #d8d8d8;"/>
      <rect x="56.82" y="151.52" width="170.45" height="18.94" style="fill: #e8007a;"/>
      <rect x="37.87" y="132.59" width="18.95" height="18.93" style="fill: #bcbcbc;"/>
      <rect x="56.82" y="113.67" width="18.94" height="18.92" style="fill: #efefef;"/>
      <rect x="208.32" y="113.67" width="18.95" height="18.92" style="fill: #999;"/>
      <rect x="37.87" y="132.59" width="18.95" height="18.93" style="fill: #bcbcbc;"/>
      <rect x="227.27" y="132.59" width="18.92" height="18.93" style="fill: #bcbcbc;"/>
      <rect x="170.44" width="18.95" height="18.96" style="fill: #00a6c1;"/>
      <rect x="151.51" width="18.93" height="18.96" style="fill: #00a6c1;"/>
      <rect x="227.27" y="132.59" width="18.92" height="18.93" style="fill: #999;"/>
      <rect x="37.87" y="132.59" width="18.95" height="18.93" style="fill: #efefef;"/>
    </g>
  </g>
</svg>