<?xml version="1.0" encoding="UTF-8"?>
<svg id="Warstwa_2" data-name="Warstwa 2" xmlns="http://www.w3.org/2000/svg" viewBox="0 0 470.78 554.85">
  <g id="_Ńëîé_8" data-name="Ńëîé 8">
    <g>
      <rect x="100.88" y="453.97" width="16.81" height="16.81" style="fill: #fffabb;"/>
      <rect x="117.7" y="453.97" width="16.81" height="16.81" style="fill: #fffabb;"/>
      <rect x="84.07" y="453.97" width="16.81" height="16.81" style="fill: #ffbf0b;"/>
      <rect x="100.88" y="470.78" width="16.81" height="16.81" style="fill: #ffbf0b;"/>
      <rect x="117.7" y="470.78" width="16.81" height="16.81" style="fill: #ffbf0b;"/>
      <rect x="84.07" y="470.78" width="16.81" height="16.81" style="fill: #ed9220;"/>
      <rect x="100.88" y="487.6" width="16.81" height="16.81" style="fill: #ed9220;"/>
      <rect x="117.7" y="487.6" width="16.81" height="16.81" style="fill: #ed9220;"/>
      <rect x="84.07" y="487.6" width="16.81" height="16.81" style="fill: #e54600;"/>
      <rect x="100.88" y="504.41" width="16.81" height="16.81" style="fill: #e54600;"/>
      <rect x="117.7" y="504.41" width="16.81" height="16.81" style="fill: #e54600;"/>
      <rect x="84.07" y="504.41" width="16.81" height="16.81" style="fill: #d81220;"/>
      <rect x="100.88" y="521.22" width="16.81" height="16.81" style="fill: #d81220;"/>
      <rect x="117.7" y="521.22" width="16.81" height="16.81" style="fill: #d81220;"/>
      <rect x="84.07" y="521.22" width="16.81" height="16.81" style="fill: #9b0000;"/>
      <rect x="134.51" y="453.97" width="16.81" height="16.81" style="fill: #ffbf0b;"/>
      <rect x="134.51" y="470.78" width="16.81" height="16.81" style="fill: #ed9220;"/>
      <rect x="134.51" y="487.6" width="16.81" height="16.81" style="fill: #e54600;"/>
      <rect x="134.51" y="504.41" width="16.81" height="16.81" style="fill: #d81220;"/>
      <rect x="134.51" y="521.22" width="16.81" height="16.81" style="fill: #9b0000;"/>
      <rect x="100.88" y="538.04" width="16.81" height="16.81" style="fill: #9b0000;"/>
      <rect x="117.7" y="538.04" width="16.81" height="16.81" style="fill: #9b0000;"/>
      <rect x="336.27" y="453.97" width="16.81" height="16.81" style="fill: #fffabb;"/>
      <rect x="353.09" y="453.97" width="16.81" height="16.81" style="fill: #fffabb;"/>
      <rect x="319.46" y="453.97" width="16.81" height="16.81" style="fill: #ffbf0b;"/>
      <rect x="336.27" y="470.78" width="16.81" height="16.81" style="fill: #ffbf0b;"/>
      <rect x="353.09" y="470.78" width="16.81" height="16.81" style="fill: #ffbf0b;"/>
      <rect x="319.46" y="470.78" width="16.81" height="16.81" style="fill: #ed9220;"/>
      <rect x="336.27" y="487.6" width="16.81" height="16.81" style="fill: #ed9220;"/>
      <rect x="353.09" y="487.6" width="16.81" height="16.81" style="fill: #ed9220;"/>
      <rect x="319.46" y="487.6" width="16.81" height="16.81" style="fill: #e54600;"/>
      <rect x="336.27" y="504.41" width="16.81" height="16.81" style="fill: #e54600;"/>
      <rect x="353.09" y="504.41" width="16.81" height="16.81" style="fill: #e54600;"/>
      <rect x="319.46" y="504.41" width="16.81" height="16.81" style="fill: #d81220;"/>
      <rect x="336.27" y="521.22" width="16.81" height="16.81" style="fill: #d81220;"/>
      <rect x="353.09" y="521.22" width="16.81" height="16.81" style="fill: #d81220;"/>
      <rect x="319.46" y="521.22" width="16.81" height="16.81" style="fill: #9b0000;"/>
      <rect x="369.9" y="453.97" width="16.81" height="16.81" style="fill: #ffbf0b;"/>
      <rect x="369.9" y="470.78" width="16.81" height="16.81" style="fill: #ed9220;"/>
      <rect x="369.9" y="487.6" width="16.81" height="16.81" style="fill: #e54600;"/>
      <rect x="369.9" y="504.41" width="16.81" height="16.81" style="fill: #d81220;"/>
      <rect x="369.9" y="521.22" width="16.81" height="16.81" style="fill: #9b0000;"/>
      <rect x="336.27" y="538.04" width="16.81" height="16.81" style="fill: #9b0000;"/>
      <rect x="353.09" y="538.04" width="16.81" height="16.81" style="fill: #9b0000;"/>
      <rect x="100.88" y="201.76" width="16.81" height="16.81" style="fill: #b7eff9;"/>
      <rect x="117.7" y="184.95" width="16.81" height="16.81" style="fill: #b7eff9;"/>
      <rect x="134.51" y="168.14" width="16.81" height="16.81" style="fill: #b7eff9;"/>
      <rect x="151.32" y="151.32" width="16.81" height="16.81" style="fill: #b7eff9;"/>
      <rect x="168.14" y="134.51" width="16.81" height="16.81" style="fill: #b7eff9;"/>
      <rect x="168.14" y="151.32" width="16.81" height="16.81" style="fill: #b3e2f2;"/>
      <rect x="168.14" y="168.14" width="16.81" height="16.81" style="fill: #b3e2f2;"/>
      <rect x="168.14" y="184.95" width="16.81" height="16.81" style="fill: #b3e2f2;"/>
      <rect x="168.14" y="201.76" width="16.81" height="16.81" style="fill: #b3e2f2;"/>
      <rect x="168.14" y="218.58" width="16.81" height="16.81" style="fill: #b3e2f2;"/>
      <rect x="168.14" y="235.39" width="16.81" height="16.81" style="fill: #b3e2f2;"/>
      <rect x="184.95" y="252.2" width="16.81" height="16.81" style="fill: #b3e2f2;"/>
      <rect x="184.95" y="269.02" width="16.81" height="16.81" style="fill: #b3e2f2;"/>
      <rect x="201.76" y="285.83" width="16.81" height="16.81" style="fill: #b3e2f2;"/>
      <rect x="218.58" y="302.65" width="16.81" height="16.81" style="fill: #b3e2f2;"/>
      <rect x="168.14" y="100.88" width="16.81" height="16.81" style="fill: #b7eff9;"/>
      <rect x="168.14" y="84.07" width="16.81" height="16.81" style="fill: #e58800;"/>
      <rect x="184.95" y="67.25" width="16.81" height="16.81" style="fill: #ffb339;"/>
      <rect x="184.95" y="50.44" width="16.81" height="16.81" style="fill: #e58800;"/>
      <rect x="201.76" y="33.63" width="16.81" height="16.81" style="fill: #ffb339;"/>
      <rect x="184.95" y="33.63" width="16.81" height="16.81" style="fill: #e58800;"/>
      <rect x="218.58" y="16.81" width="16.81" height="16.81" style="fill: #ffb339;"/>
      <rect x="201.76" y="16.81" width="16.81" height="16.81" style="fill: #e58800;"/>
      <rect x="84.07" y="218.58" width="16.81" height="16.81" style="fill: #b7eff9;"/>
      <rect x="67.26" y="235.39" width="16.81" height="16.81" style="fill: #b7eff9;"/>
      <rect x="50.44" y="252.2" width="16.81" height="16.81" style="fill: #b7eff9;"/>
      <rect x="33.63" y="269.02" width="16.81" height="16.81" style="fill: #b7eff9;"/>
      <rect x="16.81" y="285.83" width="16.81" height="16.81" style="fill: #b7eff9;"/>
      <rect y="302.65" width="16.81" height="16.81" style="fill: #b7eff9;"/>
      <rect y="386.71" width="16.81" height="16.81" style="fill: #b7eff9;"/>
      <rect y="369.9" width="16.81" height="16.81" style="fill: #b7eff9;"/>
      <rect y="353.09" width="16.81" height="16.81" style="fill: #b7eff9;"/>
      <rect y="336.27" width="16.81" height="16.81" style="fill: #b7eff9;"/>
      <rect y="319.46" width="16.81" height="16.81" style="fill: #b7eff9;"/>
      <rect x="16.81" y="369.9" width="16.81" height="16.81" style="fill: #fff;"/>
      <rect x="16.81" y="353.09" width="16.81" height="16.81" style="fill: #fff;"/>
      <rect x="16.81" y="336.27" width="16.81" height="16.81" style="fill: #fff;"/>
      <rect x="16.81" y="319.46" width="16.81" height="16.81" style="fill: #fff;"/>
      <rect x="33.63" y="369.9" width="16.81" height="16.81" style="fill: #fff;"/>
      <rect x="33.63" y="353.09" width="16.81" height="16.81" style="fill: #fff;"/>
      <rect x="33.63" y="336.27" width="16.81" height="16.81" style="fill: #fff;"/>
      <rect x="33.63" y="319.46" width="16.81" height="16.81" style="fill: #fff;"/>
      <rect x="50.44" y="369.9" width="16.81" height="16.81" style="fill: #ffb339;"/>
      <rect x="50.44" y="353.09" width="16.81" height="16.81" style="fill: #fff;"/>
      <rect x="50.44" y="336.27" width="16.81" height="16.81" style="fill: #ffb339;"/>
      <rect x="50.44" y="319.46" width="16.81" height="16.81" style="fill: #fff;"/>
      <rect x="16.81" y="302.65" width="16.81" height="16.81" style="fill: #fff;"/>
      <rect x="33.63" y="302.65" width="16.81" height="16.81" style="fill: #fff;"/>
      <rect x="50.44" y="302.65" width="16.81" height="16.81" style="fill: #fff;"/>
      <rect x="33.63" y="285.83" width="16.81" height="16.81" style="fill: #fff;"/>
      <rect x="50.44" y="285.83" width="16.81" height="16.81" style="fill: #fff;"/>
      <rect x="67.26" y="285.83" width="16.81" height="16.81" style="fill: #fff;"/>
      <rect x="50.44" y="269.02" width="16.81" height="16.81" style="fill: #fff;"/>
      <rect x="67.26" y="269.02" width="16.81" height="16.81" style="fill: #fff;"/>
      <rect x="84.07" y="269.02" width="16.81" height="16.81" style="fill: #fff;"/>
      <rect x="67.26" y="252.2" width="16.81" height="16.81" style="fill: #fff;"/>
      <rect x="84.07" y="252.2" width="16.81" height="16.81" style="fill: #fff;"/>
      <rect x="84.07" y="235.39" width="16.81" height="16.81" style="fill: #fff;"/>
      <rect x="100.88" y="252.2" width="16.81" height="16.81" style="fill: #fff;"/>
      <rect x="100.88" y="235.39" width="16.81" height="16.81" style="fill: #fff;"/>
      <rect x="117.7" y="252.2" width="16.81" height="16.81" style="fill: #fff;"/>
      <rect x="117.7" y="235.39" width="16.81" height="16.81" style="fill: #fff;"/>
      <rect x="134.51" y="252.2" width="16.81" height="16.81" style="fill: #fff;"/>
      <rect x="134.51" y="235.39" width="16.81" height="16.81" style="fill: #fff;"/>
      <rect x="151.32" y="252.2" width="16.81" height="16.81" style="fill: #fff;"/>
      <rect x="134.51" y="269.02" width="16.81" height="16.81" style="fill: #fff;"/>
      <rect x="151.32" y="269.02" width="16.81" height="16.81" style="fill: #fff;"/>
      <rect x="151.32" y="285.83" width="16.81" height="16.81" style="fill: #fff;"/>
      <rect x="168.14" y="252.2" width="16.81" height="16.81" style="fill: #fff;"/>
      <rect x="168.14" y="269.02" width="16.81" height="16.81" style="fill: #fff;"/>
      <rect x="168.14" y="285.83" width="16.81" height="16.81" style="fill: #fff;"/>
      <rect x="168.14" y="302.65" width="16.81" height="16.81" style="fill: #fff;"/>
      <rect x="168.14" y="319.46" width="16.81" height="16.81" style="fill: #fff;"/>
      <rect x="168.14" y="336.27" width="16.81" height="16.81" style="fill: #ffb339;"/>
      <rect x="168.14" y="353.09" width="16.81" height="16.81" style="fill: #fff;"/>
      <rect x="168.14" y="369.9" width="16.81" height="16.81" style="fill: #ffb339;"/>
      <rect x="168.14" y="386.71" width="16.81" height="16.81" style="fill: #fff;"/>
      <rect x="168.14" y="403.53" width="16.81" height="16.81" style="fill: #fff;"/>
      <rect x="184.95" y="285.83" width="16.81" height="16.81" style="fill: #fff;"/>
      <rect x="184.95" y="302.65" width="16.81" height="16.81" style="fill: #fff;"/>
      <rect x="184.95" y="319.46" width="16.81" height="16.81" style="fill: #fff;"/>
      <rect x="184.95" y="336.27" width="16.81" height="16.81" style="fill: #ffb339;"/>
      <rect x="184.95" y="353.09" width="16.81" height="16.81" style="fill: #fff;"/>
      <rect x="184.95" y="369.9" width="16.81" height="16.81" style="fill: #ffb339;"/>
      <rect x="184.95" y="386.71" width="16.81" height="16.81" style="fill: #fff;"/>
      <rect x="184.95" y="420.34" width="16.81" height="16.81" style="fill: #b7eff9;"/>
      <rect x="184.95" y="403.53" width="16.81" height="16.81" style="fill: #fff;"/>
      <rect x="201.76" y="319.46" width="16.81" height="16.81" style="fill: #fff;"/>
      <rect x="201.76" y="302.65" width="16.81" height="16.81" style="fill: #fff;"/>
      <rect x="201.76" y="336.27" width="16.81" height="16.81" style="fill: #fff;"/>
      <rect x="201.76" y="353.09" width="16.81" height="16.81" style="fill: #ffb339;"/>
      <rect x="201.76" y="369.9" width="16.81" height="16.81" style="fill: #fff;"/>
      <rect x="201.76" y="386.71" width="16.81" height="16.81" style="fill: #ffb339;"/>
      <rect x="201.76" y="403.53" width="16.81" height="16.81" style="fill: #fff;"/>
      <rect x="201.76" y="437.16" width="16.81" height="16.81" style="fill: #b7eff9;"/>
      <rect x="201.76" y="420.34" width="16.81" height="16.81" style="fill: #fff;"/>
      <rect x="218.58" y="336.27" width="16.81" height="16.81" style="fill: #fff;"/>
      <rect x="218.58" y="319.46" width="16.81" height="16.81" style="fill: #fff;"/>
      <rect x="218.58" y="353.09" width="16.81" height="16.81" style="fill: #ffb339;"/>
      <rect x="218.58" y="369.9" width="16.81" height="16.81" style="fill: #fff;"/>
      <rect x="218.58" y="386.71" width="16.81" height="16.81" style="fill: #ffb339;"/>
      <rect x="218.58" y="403.53" width="16.81" height="16.81" style="fill: #fff;"/>
      <rect x="218.58" y="420.34" width="16.81" height="16.81" style="fill: #fff;"/>
      <rect x="218.58" y="437.16" width="16.81" height="16.81" style="fill: #b7eff9;"/>
      <rect x="151.32" y="235.39" width="16.81" height="16.81" style="fill: #fff;"/>
      <rect x="100.88" y="218.58" width="16.81" height="16.81" style="fill: #fff;"/>
      <rect x="117.7" y="218.58" width="16.81" height="16.81" style="fill: #fff;"/>
      <rect x="134.51" y="218.58" width="16.81" height="16.81" style="fill: #fff;"/>
      <rect x="151.32" y="218.58" width="16.81" height="16.81" style="fill: #fff;"/>
      <rect x="117.7" y="201.76" width="16.81" height="16.81" style="fill: #fff;"/>
      <rect x="134.51" y="201.76" width="16.81" height="16.81" style="fill: #fff;"/>
      <rect x="151.32" y="201.76" width="16.81" height="16.81" style="fill: #fff;"/>
      <rect x="134.51" y="184.95" width="16.81" height="16.81" style="fill: #fff;"/>
      <rect x="151.32" y="184.95" width="16.81" height="16.81" style="fill: #fff;"/>
      <rect x="151.32" y="168.14" width="16.81" height="16.81" style="fill: #fff;"/>
      <rect x="184.95" y="84.07" width="16.81" height="16.81" style="fill: #ffb339;"/>
      <rect x="201.76" y="67.25" width="16.81" height="16.81" style="fill: #ffb339;"/>
      <rect x="201.76" y="50.44" width="16.81" height="16.81" style="fill: #ffb339;"/>
      <rect x="218.58" y="50.44" width="16.81" height="16.81" style="fill: #ffb339;"/>
      <rect x="218.58" y="33.63" width="16.81" height="16.81" style="fill: #ffb339;"/>
      <rect x="184.95" y="100.88" width="16.81" height="16.81" style="fill: #fff;"/>
      <rect x="184.95" y="134.51" width="16.81" height="16.81" style="fill: #fff;"/>
      <rect x="184.95" y="151.32" width="16.81" height="16.81" style="fill: #fff;"/>
      <rect x="184.95" y="168.14" width="16.81" height="16.81" style="fill: #fff;"/>
      <rect x="184.95" y="184.95" width="16.81" height="16.81" style="fill: #fff;"/>
      <rect x="184.95" y="201.76" width="16.81" height="16.81" style="fill: #fff;"/>
      <rect x="184.95" y="218.58" width="16.81" height="16.81" style="fill: #fff;"/>
      <rect x="184.95" y="235.39" width="16.81" height="16.81" style="fill: #fff;"/>
      <rect x="201.76" y="201.76" width="16.81" height="16.81" style="fill: #fff;"/>
      <rect x="201.76" y="218.58" width="16.81" height="16.81" style="fill: #fff;"/>
      <rect x="218.58" y="218.58" width="16.81" height="16.81" style="fill: #fff;"/>
      <rect x="201.76" y="235.39" width="16.81" height="16.81" style="fill: #fff;"/>
      <rect x="201.76" y="252.2" width="16.81" height="16.81" style="fill: #fff;"/>
      <rect x="201.76" y="269.02" width="16.81" height="16.81" style="fill: #fff;"/>
      <rect x="218.58" y="252.2" width="16.81" height="16.81" style="fill: #fff;"/>
      <rect x="218.58" y="269.02" width="16.81" height="16.81" style="fill: #fff;"/>
      <rect x="218.58" y="285.83" width="16.81" height="16.81" style="fill: #fff;"/>
      <rect x="16.81" y="386.71" width="16.81" height="16.81" style="fill: #b7eff9;"/>
      <rect x="33.63" y="403.53" width="16.81" height="16.81" style="fill: #b7eff9;"/>
      <rect x="50.44" y="403.53" width="16.81" height="16.81" style="fill: #b7eff9;"/>
      <rect x="33.63" y="386.71" width="16.81" height="16.81" style="fill: #fff;"/>
      <rect x="50.44" y="386.71" width="16.81" height="16.81" style="fill: #fff;"/>
      <rect x="67.26" y="403.53" width="16.81" height="16.81" style="fill: #00aaba;"/>
      <rect x="67.26" y="386.71" width="16.81" height="16.81" style="fill: #00aaba;"/>
      <rect x="67.26" y="369.9" width="16.81" height="16.81" style="fill: #00aaba;"/>
      <rect x="67.26" y="353.09" width="16.81" height="16.81" style="fill: #00aaba;"/>
      <rect x="67.26" y="302.65" width="16.81" height="16.81" style="fill: #00aaba;"/>
      <rect x="84.07" y="285.83" width="16.81" height="16.81" style="fill: #00aaba;"/>
      <rect x="100.88" y="269.02" width="16.81" height="16.81" style="fill: #00aaba;"/>
      <rect x="117.7" y="269.02" width="16.81" height="16.81" style="fill: #00aaba;"/>
      <rect x="134.51" y="285.83" width="16.81" height="16.81" style="fill: #00aaba;"/>
      <rect x="84.07" y="302.65" width="16.81" height="16.81" style="fill: #07e8e8;"/>
      <rect x="100.88" y="285.83" width="16.81" height="16.81" style="fill: #07e8e8;"/>
      <rect x="117.7" y="285.83" width="16.81" height="16.81" style="fill: #07e8e8;"/>
      <rect x="100.88" y="302.65" width="16.81" height="16.81" style="fill: #02d0d8;"/>
      <rect x="117.7" y="302.65" width="16.81" height="16.81" style="fill: #02d0d8;"/>
      <rect x="134.51" y="302.65" width="16.81" height="16.81" style="fill: #07e8e8;"/>
      <rect x="84.07" y="319.46" width="16.81" height="16.81" style="fill: #07e8e8;"/>
      <rect x="100.88" y="319.46" width="16.81" height="16.81" style="fill: #02d0d8;"/>
      <rect x="117.7" y="319.46" width="16.81" height="16.81" style="fill: #02d0d8;"/>
      <rect x="134.51" y="319.46" width="16.81" height="16.81" style="fill: #07e8e8;"/>
      <rect x="84.07" y="353.09" width="16.81" height="16.81" style="fill: #07e8e8;"/>
      <rect x="100.88" y="353.09" width="16.81" height="16.81" style="fill: #02d0d8;"/>
      <rect x="117.7" y="353.09" width="16.81" height="16.81" style="fill: #02d0d8;"/>
      <rect x="134.51" y="353.09" width="16.81" height="16.81" style="fill: #07e8e8;"/>
      <rect x="84.07" y="386.71" width="16.81" height="16.81" style="fill: #07e8e8;"/>
      <rect x="100.88" y="386.71" width="16.81" height="16.81" style="fill: #02d0d8;"/>
      <rect x="117.7" y="386.71" width="16.81" height="16.81" style="fill: #02d0d8;"/>
      <rect x="134.51" y="386.71" width="16.81" height="16.81" style="fill: #07e8e8;"/>
      <rect x="84.07" y="403.53" width="16.81" height="16.81" style="fill: #07e8e8;"/>
      <rect x="100.88" y="403.53" width="16.81" height="16.81" style="fill: #02d0d8;"/>
      <rect x="117.7" y="403.53" width="16.81" height="16.81" style="fill: #02d0d8;"/>
      <rect x="134.51" y="403.53" width="16.81" height="16.81" style="fill: #07e8e8;"/>
      <rect x="151.32" y="302.65" width="16.81" height="16.81" style="fill: #00aaba;"/>
      <rect x="67.26" y="319.46" width="16.81" height="16.81" style="fill: #00aaba;"/>
      <rect x="151.32" y="319.46" width="16.81" height="16.81" style="fill: #00aaba;"/>
      <rect x="67.26" y="336.27" width="16.81" height="16.81" style="fill: #00aaba;"/>
      <rect x="84.07" y="336.27" width="16.81" height="16.81" style="fill: #07e8e8;"/>
      <rect x="100.88" y="336.27" width="16.81" height="16.81" style="fill: #02d0d8;"/>
      <rect x="117.7" y="336.27" width="16.81" height="16.81" style="fill: #02d0d8;"/>
      <rect x="134.51" y="336.27" width="16.81" height="16.81" style="fill: #07e8e8;"/>
      <rect x="84.07" y="369.9" width="16.81" height="16.81" style="fill: #07e8e8;"/>
      <rect x="100.88" y="369.9" width="16.81" height="16.81" style="fill: #02d0d8;"/>
      <rect x="117.7" y="369.9" width="16.81" height="16.81" style="fill: #02d0d8;"/>
      <rect x="134.51" y="369.9" width="16.81" height="16.81" style="fill: #07e8e8;"/>
      <rect x="151.32" y="336.27" width="16.81" height="16.81" style="fill: #00aaba;"/>
      <rect x="151.32" y="353.09" width="16.81" height="16.81" style="fill: #00aaba;"/>
      <rect x="151.32" y="369.9" width="16.81" height="16.81" style="fill: #00aaba;"/>
      <rect x="151.32" y="386.71" width="16.81" height="16.81" style="fill: #00aaba;"/>
      <rect x="151.32" y="403.53" width="16.81" height="16.81" style="fill: #00aaba;"/>
      <rect x="168.14" y="420.34" width="16.81" height="16.81" style="fill: #b7eff9;"/>
      <rect x="84.07" y="420.34" width="16.81" height="16.81" style="fill: #00aaba;"/>
      <rect x="100.88" y="420.34" width="16.81" height="16.81" style="fill: #00aaba;"/>
      <rect x="117.7" y="420.34" width="16.81" height="16.81" style="fill: #00aaba;"/>
      <rect x="134.51" y="420.34" width="16.81" height="16.81" style="fill: #00aaba;"/>
      <rect x="218.58" y="67.25" width="16.81" height="16.81" style="fill: #0071b7;"/>
      <rect x="201.76" y="84.07" width="16.81" height="16.81" style="fill: #0071b7;"/>
      <rect x="201.76" y="100.88" width="16.81" height="16.81" style="fill: #0071b7;"/>
      <rect x="201.76" y="134.51" width="16.81" height="16.81" style="fill: #0071b7;"/>
      <rect x="201.76" y="151.32" width="16.81" height="16.81" style="fill: #0071b7;"/>
      <rect x="201.76" y="168.14" width="16.81" height="16.81" style="fill: #0071b7;"/>
      <rect x="201.76" y="184.95" width="16.81" height="16.81" style="fill: #0071b7;"/>
      <rect x="218.58" y="84.07" width="16.81" height="16.81" style="fill: #e6fbff;"/>
      <rect x="218.58" y="100.88" width="16.81" height="16.81" style="fill: #b6ecff;"/>
      <rect x="218.58" y="134.51" width="16.81" height="16.81" style="fill: #b6ecff;"/>
      <rect x="218.58" y="151.32" width="16.81" height="16.81" style="fill: #b6ecff;"/>
      <rect x="218.58" y="168.14" width="16.81" height="16.81" style="fill: #b6ecff;"/>
      <rect x="218.58" y="184.95" width="16.81" height="16.81" style="fill: #b6ecff;"/>
      <rect x="218.58" y="201.76" width="16.81" height="16.81" style="fill: #0071b7;"/>
      <rect x="218.58" y="235.39" width="16.81" height="16.81" style="fill: #0071b7;"/>
      <rect x="353.09" y="201.76" width="16.81" height="16.81" style="fill: #b7eff9;"/>
      <rect x="336.27" y="184.95" width="16.81" height="16.81" style="fill: #b7eff9;"/>
      <rect x="319.46" y="168.14" width="16.81" height="16.81" style="fill: #b7eff9;"/>
      <rect x="302.65" y="151.32" width="16.81" height="16.81" style="fill: #b7eff9;"/>
      <rect x="285.83" y="134.51" width="16.81" height="16.81" style="fill: #b7eff9;"/>
      <rect x="285.83" y="151.32" width="16.81" height="16.81" style="fill: #b3e2f2;"/>
      <rect x="285.83" y="168.14" width="16.81" height="16.81" style="fill: #b3e2f2;"/>
      <rect x="285.83" y="184.95" width="16.81" height="16.81" style="fill: #b3e2f2;"/>
      <rect x="285.83" y="201.76" width="16.81" height="16.81" style="fill: #b3e2f2;"/>
      <rect x="285.83" y="218.58" width="16.81" height="16.81" style="fill: #b3e2f2;"/>
      <rect x="285.83" y="235.39" width="16.81" height="16.81" style="fill: #b3e2f2;"/>
      <rect x="269.02" y="252.2" width="16.81" height="16.81" style="fill: #b3e2f2;"/>
      <rect x="269.02" y="269.02" width="16.81" height="16.81" style="fill: #b3e2f2;"/>
      <rect x="252.21" y="285.83" width="16.81" height="16.81" style="fill: #b3e2f2;"/>
      <rect x="235.39" y="302.65" width="16.81" height="16.81" style="fill: #b3e2f2;"/>
      <rect x="285.83" y="100.88" width="16.81" height="16.81" style="fill: #b7eff9;"/>
      <rect x="285.83" y="84.07" width="16.81" height="16.81" style="fill: #e58800;"/>
      <rect x="168.14" y="67.25" width="16.81" height="16.81" style="fill: #e58800;"/>
      <rect x="285.83" y="67.25" width="16.81" height="16.81" style="fill: #e58800;"/>
      <rect x="269.02" y="67.25" width="16.81" height="16.81" style="fill: #ffb339;"/>
      <rect x="269.02" y="50.44" width="16.81" height="16.81" style="fill: #e58800;"/>
      <rect x="252.21" y="33.63" width="16.81" height="16.81" style="fill: #ffb339;"/>
      <rect x="269.02" y="33.63" width="16.81" height="16.81" style="fill: #e58800;"/>
      <rect x="235.39" y="16.81" width="16.81" height="16.81" style="fill: #ffb339;"/>
      <rect x="218.58" width="16.81" height="16.81" style="fill: #e58800;"/>
      <rect x="235.39" width="16.81" height="16.81" style="fill: #e58800;"/>
      <rect x="252.21" y="16.81" width="16.81" height="16.81" style="fill: #e58800;"/>
      <rect x="369.9" y="218.58" width="16.81" height="16.81" style="fill: #b7eff9;"/>
      <rect x="386.71" y="235.39" width="16.81" height="16.81" style="fill: #b7eff9;"/>
      <rect x="403.53" y="252.2" width="16.81" height="16.81" style="fill: #b7eff9;"/>
      <rect x="420.34" y="269.02" width="16.81" height="16.81" style="fill: #b7eff9;"/>
      <rect x="437.16" y="285.83" width="16.81" height="16.81" style="fill: #b7eff9;"/>
      <rect x="453.97" y="302.65" width="16.81" height="16.81" style="fill: #b7eff9;"/>
      <rect x="453.97" y="386.71" width="16.81" height="16.81" style="fill: #b7eff9;"/>
      <rect x="453.97" y="369.9" width="16.81" height="16.81" style="fill: #b7eff9;"/>
      <rect x="453.97" y="353.09" width="16.81" height="16.81" style="fill: #b7eff9;"/>
      <rect x="453.97" y="336.27" width="16.81" height="16.81" style="fill: #b7eff9;"/>
      <rect x="453.97" y="319.46" width="16.81" height="16.81" style="fill: #b7eff9;"/>
      <rect x="437.16" y="369.9" width="16.81" height="16.81" style="fill: #fff;"/>
      <rect x="437.16" y="353.09" width="16.81" height="16.81" style="fill: #fff;"/>
      <rect x="437.16" y="336.27" width="16.81" height="16.81" style="fill: #fff;"/>
      <rect x="437.16" y="319.46" width="16.81" height="16.81" style="fill: #fff;"/>
      <rect x="420.34" y="369.9" width="16.81" height="16.81" style="fill: #fff;"/>
      <rect x="420.34" y="353.09" width="16.81" height="16.81" style="fill: #fff;"/>
      <rect x="420.34" y="336.27" width="16.81" height="16.81" style="fill: #fff;"/>
      <rect x="420.34" y="319.46" width="16.81" height="16.81" style="fill: #fff;"/>
      <rect x="403.53" y="369.9" width="16.81" height="16.81" style="fill: #ffb339;"/>
      <rect x="403.53" y="353.09" width="16.81" height="16.81" style="fill: #fff;"/>
      <rect x="403.53" y="336.27" width="16.81" height="16.81" style="fill: #ffb339;"/>
      <rect x="403.53" y="319.46" width="16.81" height="16.81" style="fill: #fff;"/>
      <rect x="437.16" y="302.65" width="16.81" height="16.81" style="fill: #fff;"/>
      <rect x="420.34" y="302.65" width="16.81" height="16.81" style="fill: #fff;"/>
      <rect x="403.53" y="302.65" width="16.81" height="16.81" style="fill: #fff;"/>
      <rect x="420.34" y="285.83" width="16.81" height="16.81" style="fill: #fff;"/>
      <rect x="403.53" y="285.83" width="16.81" height="16.81" style="fill: #fff;"/>
      <rect x="386.71" y="285.83" width="16.81" height="16.81" style="fill: #fff;"/>
      <rect x="403.53" y="269.02" width="16.81" height="16.81" style="fill: #fff;"/>
      <rect x="386.71" y="269.02" width="16.81" height="16.81" style="fill: #fff;"/>
      <rect x="369.9" y="269.02" width="16.81" height="16.81" style="fill: #fff;"/>
      <rect x="386.71" y="252.2" width="16.81" height="16.81" style="fill: #fff;"/>
      <rect x="369.9" y="252.2" width="16.81" height="16.81" style="fill: #fff;"/>
      <rect x="369.9" y="235.39" width="16.81" height="16.81" style="fill: #fff;"/>
      <rect x="353.09" y="252.2" width="16.81" height="16.81" style="fill: #fff;"/>
      <rect x="353.09" y="235.39" width="16.81" height="16.81" style="fill: #fff;"/>
      <rect x="336.27" y="252.2" width="16.81" height="16.81" style="fill: #fff;"/>
      <rect x="336.27" y="235.39" width="16.81" height="16.81" style="fill: #fff;"/>
      <rect x="319.46" y="252.2" width="16.81" height="16.81" style="fill: #fff;"/>
      <rect x="319.46" y="235.39" width="16.81" height="16.81" style="fill: #fff;"/>
      <rect x="302.65" y="252.2" width="16.81" height="16.81" style="fill: #fff;"/>
      <rect x="319.46" y="269.02" width="16.81" height="16.81" style="fill: #fff;"/>
      <rect x="302.65" y="269.02" width="16.81" height="16.81" style="fill: #fff;"/>
      <rect x="302.65" y="285.83" width="16.81" height="16.81" style="fill: #fff;"/>
      <rect x="285.83" y="252.2" width="16.81" height="16.81" style="fill: #fff;"/>
      <rect x="285.83" y="269.02" width="16.81" height="16.81" style="fill: #fff;"/>
      <rect x="285.83" y="285.83" width="16.81" height="16.81" style="fill: #fff;"/>
      <rect x="285.83" y="302.65" width="16.81" height="16.81" style="fill: #fff;"/>
      <rect x="285.83" y="319.46" width="16.81" height="16.81" style="fill: #fff;"/>
      <rect x="285.83" y="336.27" width="16.81" height="16.81" style="fill: #ffb339;"/>
      <rect x="285.83" y="353.09" width="16.81" height="16.81" style="fill: #fff;"/>
      <rect x="285.83" y="369.9" width="16.81" height="16.81" style="fill: #ffb339;"/>
      <rect x="285.83" y="386.71" width="16.81" height="16.81" style="fill: #fff;"/>
      <rect x="285.83" y="403.53" width="16.81" height="16.81" style="fill: #fff;"/>
      <rect x="269.02" y="285.83" width="16.81" height="16.81" style="fill: #fff;"/>
      <rect x="269.02" y="302.65" width="16.81" height="16.81" style="fill: #fff;"/>
      <rect x="269.02" y="319.46" width="16.81" height="16.81" style="fill: #fff;"/>
      <rect x="269.02" y="336.27" width="16.81" height="16.81" style="fill: #ffb339;"/>
      <rect x="269.02" y="353.09" width="16.81" height="16.81" style="fill: #fff;"/>
      <rect x="269.02" y="369.9" width="16.81" height="16.81" style="fill: #ffb339;"/>
      <rect x="269.02" y="386.71" width="16.81" height="16.81" style="fill: #fff;"/>
      <rect x="269.02" y="420.34" width="16.81" height="16.81" style="fill: #b7eff9;"/>
      <rect x="269.02" y="403.53" width="16.81" height="16.81" style="fill: #fff;"/>
      <rect x="252.21" y="319.46" width="16.81" height="16.81" style="fill: #fff;"/>
      <rect x="252.21" y="302.65" width="16.81" height="16.81" style="fill: #fff;"/>
      <rect x="252.21" y="336.27" width="16.81" height="16.81" style="fill: #fff;"/>
      <rect x="252.21" y="353.09" width="16.81" height="16.81" style="fill: #ffb339;"/>
      <rect x="252.21" y="369.9" width="16.81" height="16.81" style="fill: #fff;"/>
      <rect x="252.21" y="386.71" width="16.81" height="16.81" style="fill: #ffb339;"/>
      <rect x="252.21" y="403.53" width="16.81" height="16.81" style="fill: #fff;"/>
      <rect x="252.21" y="437.16" width="16.81" height="16.81" style="fill: #b7eff9;"/>
      <rect x="252.21" y="420.34" width="16.81" height="16.81" style="fill: #fff;"/>
      <rect x="235.39" y="336.27" width="16.81" height="16.81" style="fill: #fff;"/>
      <rect x="235.39" y="319.46" width="16.81" height="16.81" style="fill: #fff;"/>
      <rect x="235.39" y="353.09" width="16.81" height="16.81" style="fill: #ffb339;"/>
      <rect x="235.39" y="369.9" width="16.81" height="16.81" style="fill: #fff;"/>
      <rect x="235.39" y="386.71" width="16.81" height="16.81" style="fill: #ffb339;"/>
      <rect x="235.39" y="403.53" width="16.81" height="16.81" style="fill: #fff;"/>
      <rect x="235.39" y="420.34" width="16.81" height="16.81" style="fill: #fff;"/>
      <rect x="235.39" y="437.16" width="16.81" height="16.81" style="fill: #b7eff9;"/>
      <rect x="302.65" y="235.39" width="16.81" height="16.81" style="fill: #fff;"/>
      <rect x="353.09" y="218.58" width="16.81" height="16.81" style="fill: #fff;"/>
      <rect x="336.27" y="218.58" width="16.81" height="16.81" style="fill: #fff;"/>
      <rect x="319.46" y="218.58" width="16.81" height="16.81" style="fill: #fff;"/>
      <rect x="302.65" y="218.58" width="16.81" height="16.81" style="fill: #fff;"/>
      <rect x="336.27" y="201.76" width="16.81" height="16.81" style="fill: #fff;"/>
      <rect x="319.46" y="201.76" width="16.81" height="16.81" style="fill: #fff;"/>
      <rect x="302.65" y="201.76" width="16.81" height="16.81" style="fill: #fff;"/>
      <rect x="319.46" y="184.95" width="16.81" height="16.81" style="fill: #fff;"/>
      <rect x="302.65" y="184.95" width="16.81" height="16.81" style="fill: #fff;"/>
      <rect x="302.65" y="168.14" width="16.81" height="16.81" style="fill: #fff;"/>
      <rect x="269.02" y="84.07" width="16.81" height="16.81" style="fill: #ffb339;"/>
      <rect x="252.21" y="67.25" width="16.81" height="16.81" style="fill: #ffb339;"/>
      <rect x="252.21" y="50.44" width="16.81" height="16.81" style="fill: #ffb339;"/>
      <rect x="235.39" y="50.44" width="16.81" height="16.81" style="fill: #ffb339;"/>
      <rect x="235.39" y="33.63" width="16.81" height="16.81" style="fill: #ffb339;"/>
      <rect x="269.02" y="100.88" width="16.81" height="16.81" style="fill: #fff;"/>
      <rect x="269.02" y="134.51" width="16.81" height="16.81" style="fill: #fff;"/>
      <rect x="269.02" y="151.32" width="16.81" height="16.81" style="fill: #fff;"/>
      <rect x="269.02" y="168.14" width="16.81" height="16.81" style="fill: #fff;"/>
      <rect x="269.02" y="184.95" width="16.81" height="16.81" style="fill: #fff;"/>
      <rect x="269.02" y="201.76" width="16.81" height="16.81" style="fill: #fff;"/>
      <rect x="269.02" y="218.58" width="16.81" height="16.81" style="fill: #fff;"/>
      <rect x="269.02" y="235.39" width="16.81" height="16.81" style="fill: #fff;"/>
      <rect x="252.21" y="201.76" width="16.81" height="16.81" style="fill: #fff;"/>
      <rect x="252.21" y="218.58" width="16.81" height="16.81" style="fill: #fff;"/>
      <rect x="235.39" y="218.58" width="16.81" height="16.81" style="fill: #fff;"/>
      <rect x="252.21" y="235.39" width="16.81" height="16.81" style="fill: #fff;"/>
      <rect x="252.21" y="252.2" width="16.81" height="16.81" style="fill: #fff;"/>
      <rect x="252.21" y="269.02" width="16.81" height="16.81" style="fill: #fff;"/>
      <rect x="235.39" y="252.2" width="16.81" height="16.81" style="fill: #fff;"/>
      <rect x="235.39" y="269.02" width="16.81" height="16.81" style="fill: #fff;"/>
      <rect x="235.39" y="285.83" width="16.81" height="16.81" style="fill: #fff;"/>
      <rect x="437.16" y="386.71" width="16.81" height="16.81" style="fill: #b7eff9;"/>
      <rect x="420.34" y="403.53" width="16.81" height="16.81" style="fill: #b7eff9;"/>
      <rect x="403.53" y="403.53" width="16.81" height="16.81" style="fill: #b7eff9;"/>
      <rect x="420.34" y="386.71" width="16.81" height="16.81" style="fill: #fff;"/>
      <rect x="403.53" y="386.71" width="16.81" height="16.81" style="fill: #fff;"/>
      <rect x="386.71" y="403.53" width="16.81" height="16.81" style="fill: #00aaba;"/>
      <rect x="386.71" y="386.71" width="16.81" height="16.81" style="fill: #00aaba;"/>
      <rect x="386.71" y="369.9" width="16.81" height="16.81" style="fill: #00aaba;"/>
      <rect x="386.71" y="353.09" width="16.81" height="16.81" style="fill: #00aaba;"/>
      <rect x="386.71" y="302.65" width="16.81" height="16.81" style="fill: #00aaba;"/>
      <rect x="369.9" y="285.83" width="16.81" height="16.81" style="fill: #00aaba;"/>
      <rect x="353.09" y="269.02" width="16.81" height="16.81" style="fill: #00aaba;"/>
      <rect x="336.27" y="269.02" width="16.81" height="16.81" style="fill: #00aaba;"/>
      <rect x="319.46" y="285.83" width="16.81" height="16.81" style="fill: #00aaba;"/>
      <rect x="369.9" y="302.65" width="16.81" height="16.81" style="fill: #07e8e8;"/>
      <rect x="353.09" y="285.83" width="16.81" height="16.81" style="fill: #07e8e8;"/>
      <rect x="336.27" y="285.83" width="16.81" height="16.81" style="fill: #07e8e8;"/>
      <rect x="353.09" y="302.65" width="16.81" height="16.81" style="fill: #02d0d8;"/>
      <rect x="336.27" y="302.65" width="16.81" height="16.81" style="fill: #02d0d8;"/>
      <rect x="319.46" y="302.65" width="16.81" height="16.81" style="fill: #07e8e8;"/>
      <rect x="369.9" y="319.46" width="16.81" height="16.81" style="fill: #07e8e8;"/>
      <rect x="353.09" y="319.46" width="16.81" height="16.81" style="fill: #02d0d8;"/>
      <rect x="336.27" y="319.46" width="16.81" height="16.81" style="fill: #02d0d8;"/>
      <rect x="319.46" y="319.46" width="16.81" height="16.81" style="fill: #07e8e8;"/>
      <rect x="369.9" y="353.09" width="16.81" height="16.81" style="fill: #07e8e8;"/>
      <rect x="353.09" y="353.09" width="16.81" height="16.81" style="fill: #02d0d8;"/>
      <rect x="336.27" y="353.09" width="16.81" height="16.81" style="fill: #02d0d8;"/>
      <rect x="319.46" y="353.09" width="16.81" height="16.81" style="fill: #07e8e8;"/>
      <rect x="369.9" y="386.71" width="16.81" height="16.81" style="fill: #07e8e8;"/>
      <rect x="353.09" y="386.71" width="16.81" height="16.81" style="fill: #02d0d8;"/>
      <rect x="336.27" y="386.71" width="16.81" height="16.81" style="fill: #02d0d8;"/>
      <rect x="319.46" y="386.71" width="16.81" height="16.81" style="fill: #07e8e8;"/>
      <rect x="369.9" y="403.53" width="16.81" height="16.81" style="fill: #07e8e8;"/>
      <rect x="353.09" y="403.53" width="16.81" height="16.81" style="fill: #02d0d8;"/>
      <rect x="336.27" y="403.53" width="16.81" height="16.81" style="fill: #02d0d8;"/>
      <rect x="319.46" y="403.53" width="16.81" height="16.81" style="fill: #07e8e8;"/>
      <rect x="302.65" y="302.65" width="16.81" height="16.81" style="fill: #00aaba;"/>
      <rect x="386.71" y="319.46" width="16.81" height="16.81" style="fill: #00aaba;"/>
      <rect x="302.65" y="319.46" width="16.81" height="16.81" style="fill: #00aaba;"/>
      <rect x="386.71" y="336.27" width="16.81" height="16.81" style="fill: #00aaba;"/>
      <rect x="369.9" y="336.27" width="16.81" height="16.81" style="fill: #07e8e8;"/>
      <rect x="353.09" y="336.27" width="16.81" height="16.81" style="fill: #02d0d8;"/>
      <rect x="336.27" y="336.27" width="16.81" height="16.81" style="fill: #02d0d8;"/>
      <rect x="319.46" y="336.27" width="16.81" height="16.81" style="fill: #07e8e8;"/>
      <rect x="369.9" y="369.9" width="16.81" height="16.81" style="fill: #07e8e8;"/>
      <rect x="353.09" y="369.9" width="16.81" height="16.81" style="fill: #02d0d8;"/>
      <rect x="336.27" y="369.9" width="16.81" height="16.81" style="fill: #02d0d8;"/>
      <rect x="319.46" y="369.9" width="16.81" height="16.81" style="fill: #07e8e8;"/>
      <rect x="302.65" y="336.27" width="16.81" height="16.81" style="fill: #00aaba;"/>
      <rect x="302.65" y="353.09" width="16.81" height="16.81" style="fill: #00aaba;"/>
      <rect x="302.65" y="369.9" width="16.81" height="16.81" style="fill: #00aaba;"/>
      <rect x="302.65" y="386.71" width="16.81" height="16.81" style="fill: #00aaba;"/>
      <rect x="302.65" y="403.53" width="16.81" height="16.81" style="fill: #00aaba;"/>
      <rect x="285.83" y="420.34" width="16.81" height="16.81" style="fill: #b7eff9;"/>
      <rect x="369.9" y="420.34" width="16.81" height="16.81" style="fill: #00aaba;"/>
      <rect x="353.09" y="420.34" width="16.81" height="16.81" style="fill: #00aaba;"/>
      <rect x="336.27" y="420.34" width="16.81" height="16.81" style="fill: #00aaba;"/>
      <rect x="319.46" y="420.34" width="16.81" height="16.81" style="fill: #00aaba;"/>
      <rect x="235.39" y="67.25" width="16.81" height="16.81" style="fill: #0071b7;"/>
      <rect x="252.21" y="84.07" width="16.81" height="16.81" style="fill: #0071b7;"/>
      <rect x="252.21" y="100.88" width="16.81" height="16.81" style="fill: #0071b7;"/>
      <rect x="252.21" y="134.51" width="16.81" height="16.81" style="fill: #0071b7;"/>
      <rect x="252.21" y="151.32" width="16.81" height="16.81" style="fill: #0071b7;"/>
      <rect x="252.21" y="168.14" width="16.81" height="16.81" style="fill: #0071b7;"/>
      <rect x="252.21" y="184.95" width="16.81" height="16.81" style="fill: #0071b7;"/>
      <rect x="235.39" y="84.07" width="16.81" height="16.81" style="fill: #b6ecff;"/>
      <rect x="235.39" y="100.88" width="16.81" height="16.81" style="fill: #b6ecff;"/>
      <rect x="235.39" y="134.51" width="16.81" height="16.81" style="fill: #b6ecff;"/>
      <rect x="168.14" y="117.7" width="16.81" height="16.81" style="fill: #b7eff9;"/>
      <rect x="184.95" y="117.7" width="16.81" height="16.81" style="fill: #fff;"/>
      <rect x="201.76" y="117.7" width="16.81" height="16.81" style="fill: #0071b7;"/>
      <rect x="218.58" y="117.7" width="16.81" height="16.81" style="fill: #b6ecff;"/>
      <rect x="285.83" y="117.7" width="16.81" height="16.81" style="fill: #b7eff9;"/>
      <rect x="269.02" y="117.7" width="16.81" height="16.81" style="fill: #fff;"/>
      <rect x="252.21" y="117.7" width="16.81" height="16.81" style="fill: #0071b7;"/>
      <rect x="235.39" y="117.7" width="16.81" height="16.81" style="fill: #b6ecff;"/>
      <rect x="235.39" y="151.32" width="16.81" height="16.81" style="fill: #b6ecff;"/>
      <rect x="235.39" y="168.14" width="16.81" height="16.81" style="fill: #b6ecff;"/>
      <rect x="235.39" y="184.95" width="16.81" height="16.81" style="fill: #84dff7;"/>
      <rect x="235.39" y="201.76" width="16.81" height="16.81" style="fill: #0071b7;"/>
      <rect x="235.39" y="235.39" width="16.81" height="16.81" style="fill: #0071b7;"/>
    </g>
  </g>
</svg>